<svg width="20" height="20" viewBox="0 0 20 20" fill="none" xmlns="http://www.w3.org/2000/svg">
<path d="M6.71159 17.4362H13.2856C13.1542 18.1532 12.752 18.804 12.1503 19.2733C11.5487 19.7426 10.7863 20.0001 9.99858 20.0001C9.21082 20.0001 8.4485 19.7426 7.84681 19.2733C7.24513 18.804 6.84295 18.1532 6.71159 17.4362ZM9.99858 0.00012207C12.2089 0.00012207 14.3288 0.810569 15.8917 2.25317C17.4547 3.69578 18.3327 5.65237 18.3327 7.69252V11.7951L19.9084 15.0362C19.9801 15.1844 20.0105 15.3468 19.9968 15.5087C19.9832 15.6705 19.926 15.8266 19.8304 15.9628C19.7348 16.0991 19.6038 16.2111 19.4494 16.2888C19.295 16.3664 19.122 16.4072 18.9461 16.4075H1.05549C0.879395 16.4075 0.706106 16.3668 0.551402 16.2892C0.396697 16.2115 0.265492 16.0994 0.169733 15.963C0.0739738 15.8266 0.0167037 15.6702 0.00313762 15.5082C-0.0104285 15.3461 0.0201404 15.1835 0.0920605 15.0352L1.66444 11.7941V7.67919L1.66999 7.42278C1.74601 5.43081 2.65675 3.54384 4.21035 2.15942C5.76395 0.775006 7.83909 0.00124124 9.99858 0.00114765V0.00012207Z" fill="white"/>
</svg>
