<svg width="27" height="27" viewBox="0 0 27 27" fill="none" xmlns="http://www.w3.org/2000/svg">
<path d="M15.59 0.921501V2.62628H27V5.39079H15.59V7.09557C15.59 7.60239 15.2134 8.01707 14.7992 8.01707H12.2008C11.7866 8.01707 11.41 7.60239 11.41 7.09557V5.39079H0V2.62628H11.41V0.921501C11.41 0.414675 11.7866 0 12.2008 0H14.7992C15.2134 0 15.59 0.414675 15.59 0.921501ZM4.70711 9.49147H7.38075C7.79498 9.49147 8.09623 9.90615 8.09623 10.413V12.1177H27V14.8362H8.09623V16.541C8.09623 17.0478 7.79498 17.5085 7.38075 17.5085H4.70711C4.29289 17.5085 3.91632 17.0478 3.91632 16.541V14.8362H0V12.1177H3.91632V10.413C3.91632 9.90615 4.29289 9.49147 4.70711 9.49147ZM19.3556 18.9829H22.0293C22.4435 18.9829 22.7824 19.3976 22.7824 19.9044V21.6092H27V24.3276H22.7824V26.0324C22.7824 26.5393 22.4435 27 22.0293 27H19.3556C18.9414 27 18.6025 26.5393 18.6025 26.0324V24.3276L3.91632 24.3276L0 24.3276V21.6092H18.6025V19.9044C18.6025 19.3976 18.9414 18.9829 19.3556 18.9829Z" fill="#F89265"/>
</svg>
