<svg width="42" height="42" viewBox="0 0 42 42" fill="none" xmlns="http://www.w3.org/2000/svg">
<g filter="url(#filter0_d)">
<path fill-rule="evenodd" clip-rule="evenodd" d="M28 15C28 16.8565 27.2625 18.637 25.9497 19.9497C24.637 21.2625 22.8565 22 21 22C19.1435 22 17.363 21.2625 16.0503 19.9497C14.7375 18.637 14 16.8565 14 15C14 13.1435 14.7375 11.363 16.0503 10.0503C17.363 8.7375 19.1435 8 21 8C22.8565 8 24.637 8.7375 25.9497 10.0503C27.2625 11.363 28 13.1435 28 15ZM24.5 15C24.5 15.9283 24.1313 16.8185 23.4749 17.4749C22.8185 18.1313 21.9283 18.5 21 18.5C20.0717 18.5 19.1815 18.1313 18.5251 17.4749C17.8687 16.8185 17.5 15.9283 17.5 15C17.5 14.0717 17.8687 13.1815 18.5251 12.5251C19.1815 11.8687 20.0717 11.5 21 11.5C21.9283 11.5 22.8185 11.8687 23.4749 12.5251C24.1313 13.1815 24.5 14.0717 24.5 15Z" fill="#5B5B5B"/>
<path fill-rule="evenodd" clip-rule="evenodd" d="M21 1C10.3687 1 1.75 9.61875 1.75 20.25C1.75 30.8813 10.3687 39.5 21 39.5C31.6312 39.5 40.25 30.8813 40.25 20.25C40.25 9.61875 31.6312 1 21 1ZM5.25 20.25C5.25 23.9075 6.49775 27.2745 8.589 29.9485C10.0577 28.0198 11.9523 26.4568 14.125 25.3815C16.2977 24.3063 18.6896 23.7479 21.1137 23.75C23.5066 23.7477 25.8683 24.2917 28.0191 25.3404C30.1699 26.3891 32.0529 27.9149 33.5247 29.8015C35.041 27.8128 36.062 25.4916 36.5031 23.03C36.9442 20.5684 36.7928 18.0372 36.0614 15.6457C35.33 13.2543 34.0396 11.0713 32.2971 9.27757C30.5546 7.4838 28.4099 6.13075 26.0407 5.33039C23.6714 4.53003 21.1456 4.30535 18.6723 4.67495C16.1989 5.04456 13.8491 5.99781 11.8173 7.45584C9.78556 8.91388 8.13017 10.8348 6.98815 13.0596C5.84613 15.2844 5.25032 17.7492 5.25 20.25ZM21 36C17.3844 36.0054 13.878 34.7616 11.074 32.479C12.2026 30.8633 13.7048 29.5441 15.4528 28.6337C17.2008 27.7233 19.1429 27.2486 21.1137 27.25C23.06 27.2484 24.9786 27.7113 26.7101 28.6C28.4416 29.4887 29.9361 30.7778 31.0695 32.36C28.2438 34.7167 24.6795 36.0052 21 36Z" fill="#5B5B5B"/>
</g>
<defs>
<filter id="filter0_d" x="-1" y="0" width="44" height="44" filterUnits="userSpaceOnUse" color-interpolation-filters="sRGB">
<feFlood flood-opacity="0" result="BackgroundImageFix"/>
<feColorMatrix in="SourceAlpha" type="matrix" values="0 0 0 0 0 0 0 0 0 0 0 0 0 0 0 0 0 0 127 0"/>
<feOffset dy="1"/>
<feGaussianBlur stdDeviation="0.5"/>
<feColorMatrix type="matrix" values="0 0 0 0 0 0 0 0 0 0 0 0 0 0 0 0 0 0 0.25 0"/>
<feBlend mode="normal" in2="BackgroundImageFix" result="effect1_dropShadow"/>
<feBlend mode="normal" in="SourceGraphic" in2="effect1_dropShadow" result="shape"/>
</filter>
</defs>
</svg>
