<svg width="35" height="35" viewBox="0 0 35 35" fill="none" xmlns="http://www.w3.org/2000/svg">
<path d="M34.643 16.9702L0.933598 0.067197C0.796585 -0.00131768 0.639422 -0.0174386 0.490319 0.0188338C0.147786 0.10347 -0.0657944 0.450073 0.0188316 0.796676L3.49253 14.9913C3.54491 15.2049 3.70208 15.3782 3.91163 15.4467L9.86366 17.4901L3.91566 19.5334C3.70611 19.606 3.54894 19.7752 3.50059 19.9888L0.0188316 34.2036C-0.0174367 34.3527 -0.00131731 34.5099 0.0671894 34.6429C0.224352 34.9613 0.611214 35.0903 0.933598 34.9331L34.643 18.1268C34.7679 18.0664 34.8686 17.9616 34.9331 17.8407C35.0903 17.5183 34.9613 17.1314 34.643 16.9702ZM3.99222 30.1653L6.01922 21.879L17.9152 17.7964C18.0079 17.7641 18.0845 17.6916 18.1167 17.5949C18.1731 17.4256 18.0845 17.2442 17.9152 17.1838L6.01922 13.1051L4.00028 4.85113L29.3075 17.5425L3.99222 30.1653Z" fill="white"/>
</svg>
